<svg xmlns="http://www.w3.org/2000/svg" xmlns:xlink="http://www.w3.org/1999/xlink" width="358" zoomAndPan="magnify" viewBox="0 0 268.5 227.249992" height="303" preserveAspectRatio="xMidYMid meet" version="1.0"><defs><g/><clipPath id="388e2d88c3"><path d="M 22 0 L 250 0 L 250 226.101562 L 22 226.101562 Z M 22 0 " clip-rule="nonzero"/></clipPath><clipPath id="0cfd574be1"><path d="M 13.738281 138 L 258 138 L 258 142 L 13.738281 142 Z M 13.738281 138 " clip-rule="nonzero"/></clipPath></defs><g clip-path="url(#388e2d88c3)"><path fill="#ffffff" d="M 27.390625 113.121094 C 27.390625 89.625 37.542969 59.75 53.207031 43.21875 C 55.527344 40.898438 56.976562 38.285156 59.585938 35.964844 C 61.035156 34.804688 61.617188 34.515625 63.066406 33.066406 C 64.226562 31.90625 65.386719 31.035156 66.546875 29.875 C 73.800781 24.074219 83.082031 17.984375 91.492188 14.210938 C 98.453125 11.3125 103.964844 9.570312 111.796875 7.542969 C 115.566406 6.671875 119.335938 6.089844 123.398438 5.511719 C 149.210938 2.609375 175.898438 8.992188 197.363281 23.785156 C 204.902344 29.003906 205.773438 30.457031 212.152344 35.964844 C 214.765625 37.996094 216.503906 40.605469 218.824219 42.925781 C 228.976562 53.660156 238.257812 73.671875 241.738281 88.464844 C 245.800781 105 245.511719 122.691406 241.160156 139.226562 L 246.378906 139.226562 C 248.121094 131.972656 248.992188 124.433594 249.28125 116.601562 L 249.28125 109.347656 C 248.699219 93.6875 245.21875 78.3125 238.546875 64.972656 C 234.199219 55.980469 231.296875 51.339844 225.785156 43.796875 C 219.117188 35.097656 210.125 26.394531 201.421875 20.304688 C 196.199219 16.824219 190.109375 13.050781 184.019531 10.441406 C 169.515625 4.351562 156.175781 0.871094 142.542969 0 L 129.199219 0 C 116.148438 0.871094 102.515625 4.351562 88.300781 10.441406 C 81.628906 13.050781 73.21875 18.5625 67.417969 22.914062 C 63.9375 25.523438 55.234375 33.066406 52.914062 35.964844 L 46.824219 43.21875 C 41.3125 50.46875 37.832031 55.980469 33.480469 64.679688 C 28.261719 75.414062 22.75 93.105469 22.75 109.347656 C 22.75 120.660156 23.621094 130.234375 25.652344 139.226562 L 30.871094 139.226562 C 28.550781 130.8125 27.390625 121.820312 27.390625 113.121094 Z M 202.582031 198.6875 C 201.132812 199.847656 199.683594 201.007812 197.652344 202.167969 C 192.71875 205.648438 186.050781 209.417969 180.539062 212.027344 C 169.804688 216.378906 160.816406 219.277344 148.632812 220.730469 C 128.617188 223.050781 110.347656 220.148438 92.363281 212.316406 C 86.269531 209.707031 79.890625 206.226562 74.960938 202.457031 C 73.507812 201.585938 72.347656 201.007812 70.898438 199.847656 C 70.320312 199.554688 69.738281 198.976562 69.449219 198.6875 L 61.617188 198.6875 C 64.515625 201.296875 67.707031 203.617188 70.898438 205.9375 C 75.828125 209.417969 81.921875 213.1875 88.011719 215.796875 C 101.933594 221.601562 115.566406 225.371094 129.488281 226.242188 L 143.703125 226.242188 C 150.371094 225.949219 157.042969 224.789062 164.003906 223.050781 C 167.777344 221.890625 170.675781 221.019531 174.15625 219.859375 C 186.050781 215.796875 199.101562 208.257812 208.671875 200.136719 C 209.253906 199.554688 209.832031 199.265625 210.414062 198.6875 Z M 202.582031 198.6875 " fill-opacity="1" fill-rule="evenodd"/></g><path fill="#ffffff" d="M 34.351562 113.121094 C 34.351562 105.578125 35.511719 96.585938 36.960938 90.496094 C 41.3125 71.351562 50.304688 55.691406 63.648438 42.058594 L 69.738281 36.257812 C 72.347656 34.226562 74.378906 32.484375 76.988281 30.746094 C 90.332031 20.304688 114.695312 11.890625 132.101562 11.890625 C 151.53125 11.890625 163.136719 13.632812 179.667969 21.464844 C 187.789062 25.234375 195.039062 30.164062 202.003906 35.964844 C 223.757812 53.371094 237.679688 83.824219 237.679688 113.121094 C 237.679688 120.660156 236.519531 129.652344 235.066406 135.746094 C 234.777344 136.90625 234.488281 138.066406 234.199219 139.226562 L 236.519531 139.226562 C 238.546875 131.972656 239.707031 124.140625 239.707031 116.601562 C 239.707031 96.878906 237.097656 84.40625 229.558594 68.453125 C 226.65625 62.652344 223.757812 57.71875 220.277344 52.5 C 195.332031 18.5625 153.273438 2.902344 112.957031 12.183594 C 105.703125 13.632812 100.484375 15.664062 94.101562 18.273438 C 83.949219 22.625 71.1875 31.324219 63.9375 38.578125 C 54.367188 48.730469 48.855469 55.109375 42.765625 68.164062 C 37.542969 78.894531 32.613281 93.976562 32.613281 109.640625 C 32.613281 121.53125 33.191406 130.523438 35.511719 139.226562 L 37.832031 139.226562 C 35.800781 130.8125 34.351562 121.820312 34.351562 113.121094 Z M 190.691406 198.6875 C 175.609375 208.257812 157.914062 214.347656 139.929688 214.347656 C 120.496094 214.347656 108.894531 212.609375 92.363281 204.777344 C 89.753906 203.617188 87.140625 202.167969 84.53125 200.425781 C 83.371094 199.847656 82.5 199.265625 81.339844 198.6875 L 77.570312 198.6875 C 101.0625 214.636719 130.648438 220.730469 159.074219 214.058594 C 166.617188 212.609375 171.546875 210.578125 177.929688 207.96875 C 183.730469 205.648438 189.53125 202.457031 195.039062 198.6875 Z M 190.691406 198.6875 " fill-opacity="1" fill-rule="evenodd"/><path fill="#ffffff" d="M 221.144531 198.6875 C 221.144531 198.734375 221.007812 198.78125 220.734375 198.828125 C 220.460938 198.875 220.050781 198.921875 219.507812 198.96875 C 218.960938 199.015625 218.285156 199.0625 217.472656 199.105469 C 216.664062 199.152344 215.722656 199.195312 214.65625 199.242188 C 213.585938 199.285156 212.394531 199.328125 211.078125 199.371094 C 209.761719 199.410156 208.324219 199.453125 206.773438 199.492188 C 205.222656 199.53125 203.5625 199.570312 201.789062 199.605469 C 200.015625 199.640625 198.144531 199.675781 196.167969 199.710938 C 194.195312 199.746094 192.128906 199.777344 189.96875 199.804688 C 187.808594 199.835938 185.570312 199.863281 183.246094 199.890625 C 180.925781 199.917969 178.53125 199.941406 176.070312 199.964844 C 173.605469 199.988281 171.085938 200.007812 168.503906 200.027344 C 165.921875 200.042969 163.296875 200.058594 160.625 200.074219 C 157.953125 200.085938 155.246094 200.097656 152.507812 200.109375 C 149.765625 200.117188 147.007812 200.125 144.230469 200.128906 C 141.449219 200.132812 138.664062 200.136719 135.871094 200.136719 C 133.078125 200.136719 130.292969 200.132812 127.511719 200.128906 C 124.734375 200.125 121.972656 200.117188 119.234375 200.109375 C 116.496094 200.097656 113.789062 200.085938 111.117188 200.074219 C 108.445312 200.058594 105.816406 200.042969 103.238281 200.027344 C 100.65625 200.007812 98.136719 199.988281 95.671875 199.964844 C 93.207031 199.941406 90.816406 199.917969 88.492188 199.890625 C 86.171875 199.863281 83.929688 199.835938 81.773438 199.804688 C 79.613281 199.777344 77.546875 199.746094 75.570312 199.710938 C 73.597656 199.675781 71.722656 199.640625 69.953125 199.605469 C 68.179688 199.570312 66.519531 199.53125 64.964844 199.492188 C 63.414062 199.453125 61.980469 199.410156 60.664062 199.371094 C 59.347656 199.328125 58.15625 199.285156 57.085938 199.242188 C 56.015625 199.195312 55.078125 199.152344 54.265625 199.105469 C 53.457031 199.0625 52.777344 199.015625 52.234375 198.96875 C 51.6875 198.921875 51.28125 198.875 51.003906 198.828125 C 50.730469 198.78125 50.59375 198.734375 50.59375 198.6875 C 50.59375 198.636719 50.730469 198.589844 51.003906 198.542969 C 51.28125 198.496094 51.6875 198.449219 52.234375 198.402344 C 52.777344 198.355469 53.457031 198.308594 54.265625 198.265625 C 55.078125 198.21875 56.015625 198.175781 57.085938 198.128906 C 58.15625 198.085938 59.347656 198.042969 60.664062 198 C 61.980469 197.960938 63.414062 197.917969 64.964844 197.878906 C 66.519531 197.839844 68.179688 197.800781 69.953125 197.765625 C 71.722656 197.730469 73.597656 197.695312 75.570312 197.660156 C 77.546875 197.625 79.613281 197.59375 81.773438 197.566406 C 83.929688 197.535156 86.171875 197.507812 88.492188 197.480469 C 90.816406 197.453125 93.207031 197.429688 95.671875 197.40625 C 98.136719 197.382812 100.65625 197.363281 103.238281 197.347656 C 105.816406 197.328125 108.445312 197.3125 111.117188 197.296875 C 113.789062 197.285156 116.496094 197.273438 119.234375 197.261719 C 121.972656 197.253906 124.734375 197.246094 127.511719 197.242188 C 130.292969 197.238281 133.078125 197.234375 135.871094 197.234375 C 138.664062 197.234375 141.449219 197.238281 144.230469 197.242188 C 147.007812 197.246094 149.765625 197.253906 152.507812 197.261719 C 155.246094 197.273438 157.953125 197.285156 160.625 197.296875 C 163.296875 197.3125 165.921875 197.328125 168.503906 197.347656 C 171.085938 197.363281 173.605469 197.382812 176.070312 197.40625 C 178.53125 197.429688 180.925781 197.453125 183.246094 197.480469 C 185.570312 197.507812 187.808594 197.535156 189.96875 197.566406 C 192.128906 197.59375 194.195312 197.625 196.167969 197.660156 C 198.144531 197.695312 200.015625 197.730469 201.789062 197.765625 C 203.5625 197.800781 205.222656 197.839844 206.773438 197.878906 C 208.324219 197.917969 209.761719 197.960938 211.078125 198 C 212.394531 198.042969 213.585938 198.085938 214.65625 198.128906 C 215.722656 198.175781 216.664062 198.21875 217.472656 198.265625 C 218.285156 198.308594 218.960938 198.355469 219.507812 198.402344 C 220.050781 198.449219 220.460938 198.496094 220.734375 198.542969 C 221.007812 198.589844 221.144531 198.636719 221.144531 198.6875 Z M 221.144531 198.6875 " fill-opacity="1" fill-rule="nonzero"/><g clip-path="url(#0cfd574be1)"><path fill="#ffffff" d="M 257.980469 139.804688 C 257.980469 139.828125 257.933594 139.851562 257.835938 139.875 C 257.738281 139.898438 257.589844 139.921875 257.394531 139.945312 C 257.199219 139.972656 256.953125 139.996094 256.660156 140.019531 C 256.367188 140.042969 256.027344 140.066406 255.636719 140.089844 C 255.246094 140.109375 254.808594 140.132812 254.324219 140.15625 C 253.835938 140.179688 253.304688 140.203125 252.722656 140.226562 C 252.144531 140.25 251.515625 140.269531 250.84375 140.292969 C 250.171875 140.316406 249.453125 140.339844 248.6875 140.359375 C 247.921875 140.382812 247.113281 140.402344 246.257812 140.425781 C 245.402344 140.445312 244.503906 140.46875 243.5625 140.488281 C 242.621094 140.507812 241.636719 140.53125 240.609375 140.550781 C 239.582031 140.570312 238.511719 140.589844 237.402344 140.609375 C 236.292969 140.628906 235.140625 140.648438 233.953125 140.667969 C 232.761719 140.6875 231.53125 140.707031 230.265625 140.726562 C 228.996094 140.742188 227.691406 140.761719 226.347656 140.777344 C 225.007812 140.796875 223.628906 140.8125 222.214844 140.832031 C 220.804688 140.847656 219.355469 140.863281 217.875 140.878906 C 216.394531 140.894531 214.882812 140.910156 213.335938 140.925781 C 211.792969 140.941406 210.21875 140.957031 208.613281 140.96875 C 207.007812 140.984375 205.375 140.996094 203.710938 141.011719 C 202.050781 141.023438 200.363281 141.035156 198.648438 141.050781 C 196.933594 141.0625 195.195312 141.074219 193.433594 141.085938 C 191.671875 141.09375 189.886719 141.105469 188.078125 141.117188 C 186.273438 141.125 184.445312 141.136719 182.601562 141.144531 C 180.753906 141.152344 178.890625 141.164062 177.007812 141.171875 C 175.125 141.179688 173.230469 141.1875 171.316406 141.191406 C 169.40625 141.199219 167.480469 141.207031 165.542969 141.210938 C 163.601562 141.21875 161.652344 141.222656 159.691406 141.226562 C 157.734375 141.230469 155.765625 141.234375 153.789062 141.238281 C 151.8125 141.242188 149.828125 141.246094 147.839844 141.25 C 145.851562 141.25 143.859375 141.253906 141.863281 141.253906 C 139.867188 141.253906 137.867188 141.253906 135.871094 141.253906 C 133.871094 141.253906 131.875 141.253906 129.878906 141.253906 C 127.882812 141.253906 125.890625 141.25 123.902344 141.25 C 121.914062 141.246094 119.929688 141.242188 117.953125 141.238281 C 115.976562 141.234375 114.007812 141.230469 112.046875 141.226562 C 110.085938 141.222656 108.136719 141.21875 106.199219 141.210938 C 104.261719 141.207031 102.335938 141.199219 100.421875 141.191406 C 98.511719 141.1875 96.613281 141.179688 94.730469 141.171875 C 92.851562 141.164062 90.988281 141.152344 89.140625 141.144531 C 87.292969 141.136719 85.46875 141.125 83.660156 141.117188 C 81.855469 141.105469 80.070312 141.09375 78.308594 141.085938 C 76.542969 141.074219 74.804688 141.0625 73.09375 141.050781 C 71.378906 141.035156 69.691406 141.023438 68.027344 141.011719 C 66.367188 140.996094 64.734375 140.984375 63.128906 140.96875 C 61.523438 140.957031 59.949219 140.941406 58.402344 140.925781 C 56.859375 140.910156 55.347656 140.894531 53.863281 140.878906 C 52.382812 140.863281 50.9375 140.847656 49.523438 140.832031 C 48.109375 140.8125 46.734375 140.796875 45.390625 140.777344 C 44.050781 140.761719 42.746094 140.742188 41.476562 140.726562 C 40.207031 140.707031 38.980469 140.6875 37.789062 140.667969 C 36.597656 140.648438 35.449219 140.628906 34.339844 140.609375 C 33.226562 140.589844 32.160156 140.570312 31.132812 140.550781 C 30.105469 140.53125 29.121094 140.507812 28.175781 140.488281 C 27.234375 140.46875 26.335938 140.445312 25.484375 140.425781 C 24.628906 140.402344 23.820312 140.382812 23.054688 140.359375 C 22.289062 140.339844 21.570312 140.316406 20.898438 140.292969 C 20.222656 140.269531 19.597656 140.25 19.015625 140.226562 C 18.4375 140.203125 17.902344 140.179688 17.417969 140.15625 C 16.933594 140.132812 16.496094 140.109375 16.105469 140.089844 C 15.714844 140.066406 15.375 140.042969 15.082031 140.019531 C 14.785156 139.996094 14.542969 139.972656 14.347656 139.945312 C 14.152344 139.921875 14.003906 139.898438 13.90625 139.875 C 13.808594 139.851562 13.757812 139.828125 13.757812 139.804688 C 13.757812 139.78125 13.808594 139.757812 13.90625 139.734375 C 14.003906 139.710938 14.152344 139.6875 14.347656 139.664062 C 14.542969 139.640625 14.785156 139.617188 15.082031 139.59375 C 15.375 139.570312 15.714844 139.546875 16.105469 139.523438 C 16.496094 139.5 16.933594 139.476562 17.417969 139.453125 C 17.902344 139.429688 18.4375 139.40625 19.015625 139.382812 C 19.597656 139.363281 20.222656 139.339844 20.898438 139.316406 C 21.570312 139.292969 22.289062 139.273438 23.054688 139.25 C 23.820312 139.226562 24.628906 139.207031 25.484375 139.183594 C 26.335938 139.164062 27.234375 139.140625 28.175781 139.121094 C 29.121094 139.101562 30.105469 139.078125 31.132812 139.058594 C 32.160156 139.039062 33.226562 139.019531 34.339844 139 C 35.449219 138.980469 36.597656 138.960938 37.789062 138.941406 C 38.980469 138.921875 40.207031 138.902344 41.476562 138.886719 C 42.746094 138.867188 44.050781 138.847656 45.390625 138.832031 C 46.734375 138.8125 48.109375 138.796875 49.523438 138.78125 C 50.9375 138.761719 52.382812 138.746094 53.863281 138.730469 C 55.347656 138.714844 56.859375 138.699219 58.402344 138.683594 C 59.949219 138.667969 61.523438 138.652344 63.128906 138.640625 C 64.734375 138.625 66.367188 138.613281 68.027344 138.597656 C 69.691406 138.585938 71.378906 138.574219 73.09375 138.5625 C 74.804688 138.550781 76.542969 138.539062 78.308594 138.527344 C 80.070312 138.515625 81.855469 138.503906 83.660156 138.492188 C 85.46875 138.484375 87.292969 138.472656 89.140625 138.464844 C 90.988281 138.457031 92.851562 138.449219 94.730469 138.441406 C 96.613281 138.429688 98.511719 138.425781 100.421875 138.417969 C 102.335938 138.410156 104.261719 138.402344 106.199219 138.398438 C 108.136719 138.390625 110.085938 138.386719 112.046875 138.382812 C 114.007812 138.378906 115.976562 138.375 117.953125 138.371094 C 119.929688 138.367188 121.914062 138.363281 123.902344 138.363281 C 125.890625 138.359375 127.882812 138.359375 129.878906 138.355469 C 131.875 138.355469 133.871094 138.355469 135.871094 138.355469 C 137.867188 138.355469 139.867188 138.355469 141.863281 138.355469 C 143.859375 138.359375 145.851562 138.359375 147.839844 138.363281 C 149.828125 138.363281 151.8125 138.367188 153.789062 138.371094 C 155.765625 138.375 157.734375 138.378906 159.691406 138.382812 C 161.652344 138.386719 163.601562 138.390625 165.542969 138.398438 C 167.480469 138.402344 169.40625 138.410156 171.316406 138.417969 C 173.230469 138.425781 175.125 138.429688 177.007812 138.441406 C 178.890625 138.449219 180.753906 138.457031 182.601562 138.464844 C 184.445312 138.472656 186.273438 138.484375 188.078125 138.492188 C 189.886719 138.503906 191.671875 138.515625 193.433594 138.527344 C 195.195312 138.539062 196.933594 138.550781 198.648438 138.5625 C 200.363281 138.574219 202.050781 138.585938 203.710938 138.597656 C 205.375 138.613281 207.007812 138.625 208.613281 138.640625 C 210.21875 138.652344 211.792969 138.667969 213.335938 138.683594 C 214.882812 138.699219 216.394531 138.714844 217.875 138.730469 C 219.355469 138.746094 220.804688 138.761719 222.214844 138.78125 C 223.628906 138.796875 225.007812 138.8125 226.347656 138.832031 C 227.691406 138.847656 228.996094 138.867188 230.265625 138.886719 C 231.53125 138.902344 232.761719 138.921875 233.953125 138.941406 C 235.140625 138.960938 236.292969 138.980469 237.402344 139 C 238.511719 139.019531 239.582031 139.039062 240.609375 139.058594 C 241.636719 139.078125 242.621094 139.101562 243.5625 139.121094 C 244.503906 139.140625 245.402344 139.164062 246.257812 139.183594 C 247.113281 139.207031 247.921875 139.226562 248.6875 139.25 C 249.453125 139.273438 250.171875 139.292969 250.84375 139.316406 C 251.515625 139.339844 252.144531 139.363281 252.722656 139.382812 C 253.304688 139.40625 253.835938 139.429688 254.324219 139.453125 C 254.808594 139.476562 255.246094 139.5 255.636719 139.523438 C 256.027344 139.546875 256.367188 139.570312 256.660156 139.59375 C 256.953125 139.617188 257.199219 139.640625 257.394531 139.664062 C 257.589844 139.6875 257.738281 139.710938 257.835938 139.734375 C 257.933594 139.757812 257.980469 139.78125 257.980469 139.804688 Z M 257.980469 139.804688 " fill-opacity="1" fill-rule="nonzero"/></g><path fill="#ffffff" d="M 101.0625 109.640625 L 93.234375 109.640625 C 92.363281 109.929688 91.203125 109.929688 90.332031 109.640625 C 87.433594 109.058594 86.851562 104.417969 83.371094 103.839844 L 77.859375 103.839844 C 76.410156 104.128906 75.25 104.128906 74.089844 104.128906 C 68.867188 104.128906 63.355469 104.417969 58.714844 104.417969 C 57.265625 104.417969 53.207031 104.128906 53.207031 105.289062 C 53.207031 106.738281 56.6875 106.449219 59.296875 106.449219 L 75.539062 106.449219 C 76.121094 106.449219 76.699219 106.160156 77.28125 106.449219 C 77.859375 106.449219 78.148438 107.027344 78.148438 107.609375 C 78.148438 109.058594 74.089844 108.769531 72.347656 108.769531 L 55.816406 108.769531 C 54.367188 108.769531 53.207031 108.480469 53.207031 109.640625 C 53.207031 110.800781 54.945312 110.511719 56.105469 110.511719 L 72.058594 110.511719 C 73.800781 110.511719 78.441406 109.929688 78.441406 111.671875 C 78.441406 112.832031 76.699219 112.832031 75.828125 112.832031 L 56.105469 112.832031 C 54.65625 112.832031 53.207031 112.539062 53.207031 113.699219 C 53.207031 114.570312 54.65625 114.570312 55.816406 114.570312 L 72.058594 114.570312 C 74.378906 114.570312 78.148438 113.992188 78.148438 115.730469 C 78.148438 117.179688 73.800781 116.890625 72.058594 116.890625 L 55.816406 116.890625 C 54.65625 116.890625 53.207031 116.601562 53.207031 117.761719 C 53.207031 119.210938 57.265625 118.632812 58.714844 118.632812 C 63.9375 118.632812 69.449219 118.921875 74.960938 118.921875 C 76.410156 118.921875 76.988281 119.210938 78.148438 119.210938 C 84.820312 119.210938 84.53125 119.792969 87.722656 115.441406 C 89.460938 113.121094 90.042969 113.410156 92.363281 113.410156 C 93.523438 113.410156 94.101562 113.410156 95.554688 113.410156 C 96.714844 113.410156 97.875 113.410156 99.035156 113.410156 C 99.613281 113.410156 100.195312 113.410156 101.0625 113.410156 Z M 172.996094 113.699219 C 173.285156 113.699219 173.578125 113.699219 173.867188 113.699219 C 176.1875 113.699219 182.859375 113.410156 184.308594 113.410156 C 187.210938 114.28125 189.238281 118.050781 194.171875 119.792969 C 195.910156 120.660156 197.652344 120.660156 199.683594 120.660156 L 200.84375 120.660156 C 205.484375 120.660156 211.285156 118.921875 214.765625 117.179688 C 216.792969 116.019531 219.40625 113.410156 218.824219 111.089844 C 218.246094 107.609375 214.472656 105.578125 211.285156 104.707031 C 205.191406 102.679688 197.070312 100.9375 190.980469 105 C 189.238281 105.867188 187.5 107.898438 186.339844 108.769531 C 185.757812 109.058594 185.179688 109.347656 184.597656 109.640625 C 183.4375 109.929688 178.796875 109.640625 176.769531 109.640625 C 175.609375 109.640625 175.316406 109.640625 174.15625 109.640625 C 173.867188 109.640625 173.285156 109.640625 172.996094 109.640625 Z M 172.996094 113.699219 " fill-opacity="1" fill-rule="evenodd"/><path fill="#ffffff" d="M 93.234375 53.371094 C 99.613281 54.238281 112.085938 50.757812 117.597656 48.730469 C 124.269531 46.410156 131.808594 41.765625 138.480469 40.316406 C 151.242188 37.125 163.425781 42.058594 168.066406 53.371094 C 169.226562 55.691406 169.804688 56.558594 168.644531 58.878906 C 167.777344 60.621094 166.90625 62.652344 166.617188 64.972656 L 168.644531 62.941406 C 172.707031 58.589844 181.699219 55.398438 188.660156 56.558594 C 206.0625 59.75 205.773438 84.113281 187.789062 91.367188 C 180.539062 94.265625 170.964844 93.398438 164.585938 89.335938 L 163.425781 88.175781 C 166.324219 85.566406 169.515625 83.824219 170.386719 76.574219 L 170.097656 77.152344 C 169.804688 77.445312 169.804688 77.734375 169.515625 77.734375 C 165.164062 83.535156 155.882812 89.046875 149.792969 85.273438 C 152.695312 83.535156 155.015625 80.34375 156.175781 75.992188 C 157.335938 70.773438 156.464844 67.871094 155.59375 63.230469 C 155.015625 69.324219 154.144531 73.964844 150.953125 78.023438 C 149.792969 79.472656 147.472656 81.214844 145.730469 82.375 C 143.410156 83.535156 140.800781 84.113281 137.609375 84.40625 C 138.769531 80.632812 139.640625 77.445312 137.902344 73.671875 C 137.320312 78.3125 135.871094 82.664062 130.941406 84.40625 C 128.328125 85.273438 117.886719 85.855469 114.40625 85.566406 C 109.476562 85.273438 105.125 83.535156 101.644531 80.34375 C 100.773438 79.472656 100.484375 78.894531 99.613281 78.023438 C 98.164062 76.863281 94.101562 71.933594 93.523438 70.773438 C 93.523438 73.382812 95.84375 78.023438 97.003906 80.054688 C 99.035156 83.246094 101.0625 85.273438 103.675781 87.015625 C 101.355469 93.105469 88.59375 94.558594 80.46875 87.015625 C 77.570312 84.40625 74.960938 81.503906 73.507812 76.863281 C 72.058594 72.222656 72.929688 66.421875 74.667969 62.070312 C 80.46875 49.308594 94.683594 50.179688 108.316406 44.957031 C 112.375 43.507812 117.308594 40.605469 118.757812 37.707031 C 114.117188 40.605469 112.085938 41.765625 105.996094 43.21875 C 91.203125 46.988281 76.410156 46.117188 70.027344 62.359375 C 65.96875 73.382812 70.609375 83.824219 76.121094 89.917969 C 82.5 96.585938 91.203125 99.777344 103.964844 98.90625 C 106.574219 90.496094 109.1875 89.917969 118.175781 88.464844 C 126.007812 87.015625 132.96875 86.144531 140.800781 87.59375 C 146.601562 88.757812 154.722656 91.367188 159.363281 93.6875 C 165.746094 97.167969 164.875 104.128906 164.585938 112.539062 C 161.394531 111.671875 158.496094 110.21875 154.722656 109.347656 C 144.28125 106.160156 130.648438 104.707031 119.628906 105.578125 C 132.679688 106.449219 148.050781 109.929688 159.945312 115.152344 C 165.746094 117.761719 166.324219 118.339844 169.515625 122.402344 L 169.515625 96.585938 C 178.796875 98.039062 186.628906 99.488281 194.460938 94.847656 C 209.832031 85.273438 212.734375 54.53125 185.757812 52.210938 C 178.507812 51.628906 175.609375 54.238281 173.578125 54.53125 C 171.257812 37.707031 150.082031 27.265625 135 32.195312 C 129.199219 34.226562 117.886719 44.089844 105.125 49.597656 C 103.382812 50.46875 94.683594 53.660156 93.234375 53.371094 Z M 153.273438 128.78125 C 149.503906 128.492188 140.511719 130.234375 128.910156 129.652344 C 125.136719 129.652344 120.789062 129.363281 117.886719 127.621094 C 113.828125 125.300781 115.566406 121.242188 120.207031 120.660156 C 123.6875 120.082031 137.902344 123.851562 142.832031 124.722656 C 148.34375 125.300781 163.714844 126.171875 168.066406 124.140625 C 156.175781 122.980469 148.34375 120.660156 137.902344 117.472656 C 128.617188 114.570312 117.308594 111.378906 107.445312 114.859375 L 105.125 104.707031 C 104.253906 106.738281 101.933594 120.953125 102.222656 122.691406 C 104.253906 135.746094 135 131.972656 144.570312 130.234375 C 147.183594 129.941406 151.53125 128.78125 153.273438 128.78125 Z M 153.273438 128.78125 " fill-opacity="1" fill-rule="evenodd"/><path stroke-linecap="butt" transform="matrix(0.73649, 0, 0, 0.73649, 9.332692, 148.508086)" fill="none" stroke-linejoin="miter" d="M 73.065275 36.32056 C 73.234999 36.400118 73.351684 36.538019 73.404723 36.734262 C 73.431243 36.935809 73.388812 37.10023 73.272126 37.23813 L 73.272126 37.275257 C 72.09997 38.8399 70.683836 40.012057 69.018419 40.786422 C 67.315875 41.597915 65.422392 42.001009 63.33797 42.001009 C 59.100174 42.001009 55.785253 40.425759 53.393205 37.275257 C 51.356518 34.522547 50.343478 31.000774 50.343478 26.70994 C 50.343478 24.561871 50.608671 22.594133 51.139059 20.812031 C 51.632319 19.02993 52.385469 17.475894 53.393205 16.144622 C 54.560058 14.55346 55.997408 13.34948 57.694647 12.543291 C 59.360064 11.768926 61.242939 11.376439 63.33797 11.376439 C 65.422392 11.376439 67.315875 11.768926 69.018419 12.543291 C 70.683836 13.34948 72.09997 14.55346 73.272126 16.144622 C 73.388812 16.277219 73.431243 16.446943 73.404723 16.643186 C 73.351684 16.834126 73.234999 16.972026 73.065275 17.062192 L 70.100409 18.812471 C 69.766265 18.950372 69.48516 18.892029 69.262397 18.642747 C 68.795656 18.08584 68.291788 17.640315 67.761401 17.306171 C 67.204494 16.972026 66.663499 16.706833 66.133111 16.510589 C 65.602724 16.346169 65.098856 16.240092 64.632115 16.181749 C 64.128247 16.123407 63.698633 16.091583 63.33797 16.091583 C 62.690897 16.091583 61.905924 16.192357 60.988353 16.3886 C 60.044264 16.611363 59.142605 17.083408 58.278074 17.804735 C 57.387023 18.531365 56.633873 19.59214 56.023927 20.987059 C 55.382158 22.408498 55.063926 24.317892 55.063926 26.70994 C 55.063926 29.101987 55.382158 30.99547 56.023927 32.390389 C 56.633873 33.785308 57.387023 34.840779 58.278074 35.562106 C 59.142605 36.288737 60.044264 36.750174 60.988353 36.941113 C 61.905924 37.163876 62.690897 37.275257 63.33797 37.275257 C 63.698633 37.275257 64.128247 37.248738 64.632115 37.195699 C 65.098856 37.142661 65.602724 37.015368 66.133111 36.819124 C 66.663499 36.654704 67.204494 36.405422 67.761401 36.065974 C 68.291788 35.73183 68.795656 35.286305 69.262397 34.729398 C 69.48516 34.448292 69.766265 34.405861 70.100409 34.607409 Z M 90.647619 12.580418 C 90.647619 12.251578 90.774912 11.954561 91.024194 11.705279 C 91.241653 11.48782 91.53867 11.376439 91.904637 11.376439 L 94.158783 11.376439 C 94.492928 11.376439 94.784641 11.48782 95.033923 11.705279 C 95.261989 11.954561 95.373371 12.251578 95.373371 12.580418 L 95.373371 40.786422 C 95.373371 41.120566 95.261989 41.396368 95.033923 41.624434 C 94.784641 41.873716 94.492928 42.001009 94.158783 42.001009 L 91.904637 42.001009 C 91.53867 42.001009 91.241653 41.873716 91.024194 41.624434 C 90.774912 41.396368 90.647619 41.120566 90.647619 40.786422 L 90.647619 30.258232 C 90.647619 29.924088 90.536237 29.632374 90.313475 29.383092 C 90.058889 29.16033 89.767176 29.043644 89.433031 29.043644 L 83.497996 29.043644 C 83.163852 29.043644 82.88805 29.16033 82.670592 29.383092 C 82.42131 29.632374 82.294017 29.924088 82.294017 30.258232 L 82.294017 40.786422 C 82.294017 41.120566 82.182635 41.396368 81.959872 41.624434 C 81.705287 41.873716 81.413573 42.001009 81.079429 42.001009 L 78.788156 42.001009 C 78.448708 42.001009 78.167602 41.873716 77.950143 41.624434 C 77.695558 41.396368 77.573568 41.120566 77.573568 40.786422 L 77.573568 12.580418 C 77.573568 12.251578 77.695558 11.954561 77.950143 11.705279 C 78.167602 11.48782 78.448708 11.376439 78.788156 11.376439 L 81.079429 11.376439 C 81.413573 11.376439 81.705287 11.48782 81.959872 11.705279 C 82.182635 11.954561 82.294017 12.251578 82.294017 12.580418 L 82.294017 23.119217 C 82.294017 23.453361 82.42131 23.729162 82.670592 23.957229 C 82.88805 24.201207 83.163852 24.323196 83.497996 24.323196 L 89.433031 24.323196 C 89.767176 24.323196 90.058889 24.201207 90.313475 23.957229 C 90.536237 23.729162 90.647619 23.453361 90.647619 23.119217 Z M 114.5787 14.887604 C 114.5787 15.221748 114.467318 15.497549 114.249859 15.725616 C 114.000577 15.969594 113.70356 16.091583 113.37472 16.091583 L 105.466644 16.091583 C 105.132499 16.091583 104.856698 16.202965 104.639239 16.425727 C 104.389957 16.680313 104.262664 16.972026 104.262664 17.306171 L 104.262664 19.814903 C 104.262664 20.149047 104.389957 20.424849 104.639239 20.652915 C 104.856698 20.902197 105.132499 21.02949 105.466644 21.02949 L 110.69096 21.02949 C 111.056927 21.02949 111.364552 21.140872 111.619138 21.363634 C 111.836597 21.607613 111.942674 21.90463 111.942674 22.244078 L 111.942674 24.498224 C 111.942674 24.827064 111.836597 25.124081 111.619138 25.373363 C 111.364552 25.622645 111.056927 25.749938 110.69096 25.749938 L 105.466644 25.749938 C 105.132499 25.749938 104.856698 25.86132 104.639239 26.078779 C 104.389957 26.328061 104.262664 26.619774 104.262664 26.953918 L 104.262664 36.065974 C 104.262664 36.405422 104.389957 36.681223 104.639239 36.898682 C 104.856698 37.153268 105.132499 37.275257 105.466644 37.275257 L 113.37472 37.275257 C 113.70356 37.275257 114.000577 37.391943 114.249859 37.614705 C 114.467318 37.863987 114.5787 38.155701 114.5787 38.489845 L 114.5787 40.786422 C 114.5787 41.120566 114.467318 41.396368 114.249859 41.624434 C 114.000577 41.873716 113.70356 42.001009 113.37472 42.001009 L 100.756803 42.001009 C 100.417355 42.001009 100.13625 41.873716 99.918791 41.624434 C 99.664205 41.396368 99.542216 41.120566 99.542216 40.786422 L 99.542216 12.580418 C 99.542216 12.251578 99.664205 11.954561 99.918791 11.705279 C 100.13625 11.48782 100.417355 11.376439 100.756803 11.376439 L 113.37472 11.376439 C 113.70356 11.376439 114.000577 11.48782 114.249859 11.705279 C 114.467318 11.954561 114.5787 12.251578 114.5787 12.580418 Z M 133.789332 14.887604 C 133.789332 15.221748 133.677951 15.497549 133.460492 15.725616 C 133.21121 15.969594 132.919497 16.091583 132.585353 16.091583 L 124.677276 16.091583 C 124.348436 16.091583 124.072635 16.202965 123.855176 16.425727 C 123.60059 16.680313 123.473297 16.972026 123.473297 17.306171 L 123.473297 19.814903 C 123.473297 20.149047 123.60059 20.424849 123.855176 20.652915 C 124.072635 20.902197 124.348436 21.02949 124.677276 21.02949 L 129.901593 21.02949 C 130.26756 21.02949 130.580488 21.140872 130.829771 21.363634 C 131.047229 21.607613 131.158611 21.90463 131.158611 22.244078 L 131.158611 24.498224 C 131.158611 24.827064 131.047229 25.124081 130.829771 25.373363 C 130.580488 25.622645 130.26756 25.749938 129.901593 25.749938 L 124.677276 25.749938 C 124.348436 25.749938 124.072635 25.86132 123.855176 26.078779 C 123.60059 26.328061 123.473297 26.619774 123.473297 26.953918 L 123.473297 40.786422 C 123.473297 41.120566 123.361916 41.396368 123.139153 41.624434 C 122.889871 41.873716 122.592854 42.001009 122.264014 42.001009 L 119.967436 42.001009 C 119.627988 42.001009 119.346883 41.873716 119.129424 41.624434 C 118.880142 41.396368 118.752849 41.120566 118.752849 40.786422 L 118.752849 12.580418 C 118.752849 12.251578 118.880142 11.954561 119.129424 11.705279 C 119.346883 11.48782 119.627988 11.376439 119.967436 11.376439 L 132.585353 11.376439 C 132.919497 11.376439 133.21121 11.48782 133.460492 11.705279 C 133.677951 11.954561 133.789332 12.251578 133.789332 12.580418 Z M 169.834462 11.376439 C 170.226949 11.376439 170.550485 11.546163 170.794464 11.880307 C 171.017226 12.182628 171.091481 12.532684 171.006619 12.919866 C 170.810375 13.646497 170.672475 14.203404 170.587613 14.590587 C 170.481535 14.97777 170.380761 15.327825 170.295899 15.630146 C 170.211037 15.937771 170.131479 16.261307 170.046617 16.600755 C 169.935236 16.961419 169.792031 17.459983 169.632915 18.101752 C 169.431368 18.764736 169.197997 19.645179 168.916892 20.732473 C 168.609267 21.819768 168.222085 23.257118 167.744736 25.039219 C 167.272691 26.821321 166.689265 29.017125 165.989154 31.637239 C 165.267827 34.252049 164.419207 37.40255 163.448598 41.083439 C 163.390255 41.359241 163.24705 41.582003 163.029592 41.746423 C 162.806829 41.916147 162.557547 42.001009 162.276441 42.001009 L 159.269145 42.001009 C 158.988039 42.001009 158.738757 41.916147 158.510691 41.746423 C 158.287928 41.582003 158.150027 41.359241 158.091685 41.083439 C 157.906049 40.298466 157.609032 39.200564 157.216545 37.779125 C 156.829363 36.38951 156.410356 34.81426 155.964831 33.053373 C 155.492786 31.334918 155.00483 29.499778 154.506266 27.547952 C 153.975878 25.622645 153.456098 23.73977 152.95223 21.90463 C 152.45897 20.096008 151.997533 18.398769 151.578527 16.807606 C 151.159521 15.248267 150.814769 13.954122 150.533664 12.919866 C 150.454106 12.506164 150.523056 12.156109 150.740515 11.880307 C 150.989797 11.546163 151.313333 11.376439 151.711124 11.376439 L 154.044829 11.376439 C 154.654774 11.376439 155.063172 11.684064 155.259416 12.299313 C 155.482178 13.105502 155.816323 14.314785 156.256544 15.927163 C 156.67555 17.544845 157.131683 19.273908 157.635551 21.109048 C 158.13942 22.970708 158.627376 24.800545 159.104725 26.587951 C 159.544946 28.370052 159.921521 29.81801 160.223842 30.931824 C 160.308704 31.212929 160.489036 31.35083 160.764837 31.35083 C 161.045943 31.35083 161.215667 31.212929 161.279313 30.931824 C 161.464949 30.178674 161.714231 29.271711 162.021856 28.210936 C 162.297657 27.155465 162.605282 26.031044 162.939426 24.832368 C 163.24705 23.628389 163.570587 22.403194 163.910035 21.151479 C 164.244179 19.926284 164.562411 18.74352 164.864732 17.603187 C 165.172357 16.457551 165.453462 15.428599 165.702744 14.511029 C 165.95733 13.593458 166.14827 12.85622 166.28617 12.299313 C 166.482414 11.684064 166.885508 11.376439 167.500758 11.376439 Z M 178.72906 11.376439 C 179.063204 11.376439 179.354917 11.48782 179.604199 11.705279 C 179.832266 11.954561 179.943647 12.251578 179.943647 12.580418 L 179.943647 40.786422 C 179.943647 41.120566 179.832266 41.396368 179.604199 41.624434 C 179.354917 41.873716 179.063204 42.001009 178.72906 42.001009 L 176.432482 42.001009 C 176.093034 42.001009 175.817233 41.873716 175.599774 41.624434 C 175.345188 41.396368 175.217895 41.120566 175.217895 40.786422 L 175.217895 12.580418 C 175.217895 12.251578 175.345188 11.954561 175.599774 11.705279 C 175.817233 11.48782 176.093034 11.376439 176.432482 11.376439 Z M 192.216812 11.376439 C 193.781455 11.376439 195.133943 11.726495 196.274276 12.421302 C 197.419913 13.147933 198.348091 14.076111 199.069418 15.216444 C 199.796049 16.356777 200.315828 17.640315 200.618149 19.061753 C 200.925774 20.483191 201.021243 21.915237 200.904558 23.363195 C 200.771961 24.811153 200.437817 26.195464 199.90743 27.505521 C 199.350523 28.810274 198.597373 29.908176 197.653283 30.799227 C 197.228973 31.165194 197.117592 31.600112 197.313835 32.093372 L 200.326436 40.367416 C 200.469641 40.759903 200.42721 41.12587 200.204447 41.460014 C 199.949861 41.820678 199.599805 42.001009 199.15428 42.001009 L 196.77284 42.001009 C 196.189414 42.001009 195.796927 41.735816 195.600684 41.205428 L 192.890404 33.684534 C 192.694161 33.154147 192.301674 32.888953 191.718248 32.888953 L 190.042224 32.888953 C 189.70808 32.888953 189.432278 33.005639 189.214819 33.228401 C 188.965537 33.477683 188.838244 33.769396 188.838244 34.103541 L 188.838244 40.786422 C 188.838244 41.120566 188.726863 41.396368 188.5041 41.624434 C 188.249514 41.873716 187.957801 42.001009 187.623657 42.001009 L 185.332383 42.001009 C 184.992935 42.001009 184.71183 41.873716 184.494371 41.624434 C 184.239785 41.396368 184.117796 41.120566 184.117796 40.786422 L 184.117796 12.580418 C 184.117796 12.251578 184.239785 11.954561 184.494371 11.705279 C 184.71183 11.48782 184.992935 11.376439 185.332383 11.376439 Z M 188.838244 26.953918 C 188.838244 27.293366 188.965537 27.574471 189.214819 27.79193 C 189.432278 28.041212 189.70808 28.168505 190.042224 28.168505 L 192.306978 28.168505 C 193.171509 28.168505 193.892836 27.86088 194.481566 27.250935 C 195.064993 26.667509 195.510518 25.93027 195.818143 25.039219 C 196.120464 24.148168 196.274276 23.172256 196.274276 22.111481 C 196.274276 21.082529 196.136375 20.122528 195.85527 19.231477 C 195.552949 18.340426 195.107424 17.59258 194.518694 16.97733 C 193.935267 16.3886 193.198029 16.091583 192.306978 16.091583 L 190.042224 16.091583 C 189.70808 16.091583 189.432278 16.202965 189.214819 16.425727 C 188.965537 16.680313 188.838244 16.972026 188.838244 17.306171 Z M 222.374642 14.887604 C 222.374642 15.221748 222.26326 15.497549 222.045801 15.725616 C 221.796519 15.969594 221.488895 16.091583 221.128231 16.091583 L 217.325353 16.091583 C 216.991209 16.091583 216.710104 16.202965 216.487341 16.425727 C 216.238059 16.680313 216.110766 16.972026 216.110766 17.306171 L 216.110766 40.786422 C 216.110766 41.120566 215.999385 41.396368 215.771318 41.624434 C 215.522036 41.873716 215.214411 42.001009 214.853748 42.001009 L 212.599601 42.001009 C 212.270761 42.001009 211.989656 41.873716 211.766893 41.624434 C 211.512307 41.396368 211.385014 41.120566 211.385014 40.786422 L 211.385014 17.306171 C 211.385014 16.972026 211.273633 16.680313 211.05087 16.425727 C 210.806892 16.202965 210.515179 16.091583 210.175731 16.091583 L 206.341029 16.091583 C 205.996278 16.091583 205.720476 15.969594 205.503017 15.725616 C 205.248431 15.497549 205.126442 15.221748 205.126442 14.887604 L 205.126442 12.580418 C 205.126442 12.251578 205.248431 11.954561 205.503017 11.705279 C 205.720476 11.48782 205.996278 11.376439 206.341029 11.376439 L 221.128231 11.376439 C 221.488895 11.376439 221.796519 11.48782 222.045801 11.705279 C 222.26326 11.954561 222.374642 12.251578 222.374642 12.580418 Z M 243.134006 11.376439 C 243.46815 11.376439 243.759863 11.48782 244.014449 11.705279 C 244.237212 11.954561 244.348593 12.251578 244.348593 12.580418 L 244.348593 33.106412 C 244.348593 34.331607 244.12583 35.487852 243.675001 36.575146 C 243.20826 37.657136 242.566491 38.601226 241.760302 39.407415 C 240.948809 40.218908 239.999416 40.844765 238.912122 41.284986 C 237.824827 41.762335 236.668583 42.001009 235.443388 42.001009 C 234.223497 42.001009 233.07786 41.762335 232.017085 41.284986 C 230.935095 40.818245 229.991005 40.176477 229.179512 39.370288 C 228.373323 38.558795 227.731555 37.609401 227.254206 36.522107 C 226.787465 35.466636 226.548791 34.331607 226.548791 33.106412 L 226.548791 12.580418 C 226.548791 12.251578 226.676084 11.954561 226.925366 11.705279 C 227.148128 11.48782 227.42393 11.376439 227.763378 11.376439 L 230.017524 11.376439 C 230.378188 11.376439 230.685813 11.48782 230.935095 11.705279 C 231.163161 11.954561 231.274543 12.251578 231.274543 12.580418 L 231.274543 32.973815 C 231.274543 33.557241 231.38062 34.114148 231.598079 34.644536 C 231.826146 35.174923 232.13377 35.63636 232.526257 36.023543 C 232.91344 36.41603 233.374877 36.723654 233.905264 36.941113 C 234.435652 37.163876 234.992559 37.275257 235.575985 37.275257 C 236.711014 37.275257 237.671015 36.888075 238.455989 36.103101 C 239.235658 35.328735 239.628145 34.368734 239.628145 33.228401 L 239.628145 12.580418 C 239.628145 12.251578 239.755438 11.954561 240.00472 11.705279 C 240.254002 11.48782 240.551019 11.376439 240.879859 11.376439 Z M 265.521659 42.001009 C 264.938233 42.001009 264.545746 41.693385 264.349503 41.083439 C 264.269945 40.775814 264.158564 40.330289 264.015359 39.746863 C 263.850939 39.189956 263.644088 38.420894 263.389502 37.450285 C 263.193258 36.829732 262.790164 36.522107 262.174915 36.522107 L 255.497337 36.522107 C 254.882087 36.522107 254.478993 36.829732 254.28275 37.450285 C 254.086506 38.198132 253.916782 38.877027 253.784185 39.492277 C 253.614461 40.102222 253.460649 40.63261 253.322748 41.083439 C 253.126505 41.693385 252.734018 42.001009 252.150592 42.001009 L 249.774456 42.001009 C 249.38197 42.001009 249.058433 41.831285 248.803847 41.502445 C 248.559869 41.194821 248.490919 40.844765 248.6023 40.446974 C 248.878102 39.423326 249.228157 38.11327 249.641859 36.522107 C 250.060866 34.962768 250.527606 33.270832 251.026171 31.430388 C 251.524735 29.616463 252.039211 27.738891 252.569598 25.792369 C 253.073466 23.867063 253.556119 22.026619 254.028164 20.271036 C 254.473689 18.547277 254.892695 16.972026 255.279878 15.550588 C 255.651149 14.155669 255.942862 13.073679 256.160321 12.299313 C 256.218664 12.018208 256.361868 11.795445 256.579327 11.625721 C 256.80209 11.461301 257.051372 11.376439 257.332477 11.376439 L 260.339774 11.376439 C 260.620879 11.376439 260.870161 11.461301 261.098228 11.625721 C 261.315687 11.795445 261.453588 12.018208 261.51193 12.299313 C 262.487843 15.969594 263.336463 19.114792 264.063094 21.729602 C 264.757901 24.349716 265.341327 26.556127 265.818676 28.343533 C 266.285417 30.125635 266.677904 31.552377 266.980225 32.634367 C 267.26133 33.721662 267.500004 34.586193 267.696248 35.227962 C 267.860668 35.901554 267.998569 36.405422 268.115254 36.734262 C 268.194812 37.094926 268.279674 37.42907 268.359232 37.736694 C 268.449398 38.044319 268.544868 38.394375 268.656249 38.786862 C 268.735807 39.174044 268.873708 39.730951 269.075255 40.446974 C 269.181333 40.844765 269.112382 41.194821 268.868404 41.502445 C 268.619122 41.831285 268.295585 42.001009 267.897795 42.001009 Z M 256.197448 30.258232 C 256.091371 30.645414 256.160321 30.99547 256.414907 31.297791 C 256.664189 31.642543 256.987725 31.812267 257.374908 31.812267 L 260.302647 31.812267 C 260.68983 31.812267 261.008062 31.642543 261.257344 31.297791 C 261.51193 30.99547 261.580881 30.645414 261.474803 30.258232 C 261.246737 29.478562 261.023974 28.64055 260.801211 27.749499 C 260.546625 26.858448 260.281431 25.914359 260.00563 24.91723 C 259.920768 24.609605 259.772259 24.370931 259.544193 24.201207 C 259.32143 24.063306 259.08806 23.994356 258.844081 23.994356 C 258.589495 23.994356 258.350821 24.063306 258.128058 24.201207 C 257.905296 24.370931 257.751483 24.609605 257.666621 24.91723 C 257.417339 25.802977 257.178665 26.694028 256.955902 27.585079 C 256.701316 28.47613 256.452034 29.367181 256.197448 30.258232 Z M 286.068868 37.275257 C 286.403012 37.275257 286.694726 37.391943 286.944008 37.614705 C 287.172074 37.863987 287.283456 38.155701 287.283456 38.489845 L 287.283456 40.786422 C 287.283456 41.120566 287.172074 41.396368 286.944008 41.624434 C 286.694726 41.873716 286.403012 42.001009 286.068868 42.001009 L 274.543549 42.001009 C 274.204102 42.001009 273.922996 41.873716 273.705537 41.624434 C 273.456255 41.396368 273.328962 41.120566 273.328962 40.786422 L 273.328962 12.580418 C 273.328962 12.251578 273.456255 11.954561 273.705537 11.705279 C 273.922996 11.48782 274.204102 11.376439 274.543549 11.376439 L 276.834823 11.376439 C 277.168967 11.376439 277.46068 11.48782 277.715266 11.705279 C 277.938029 11.954561 278.04941 12.251578 278.04941 12.580418 L 278.04941 36.065974 C 278.04941 36.405422 278.176703 36.681223 278.425985 36.898682 C 278.643444 37.153268 278.919246 37.275257 279.25339 37.275257 Z M 286.068868 37.275257 " stroke="#ffffff" stroke-width="0.574563" stroke-opacity="1" stroke-miterlimit="4"/><g fill="#ffffff" fill-opacity="1"><g transform="translate(44.868331, 179.440663)"><g><path d="M 18.28125 -4.1875 C 18.394531 -4.125 18.472656 -4.019531 18.515625 -3.875 C 18.535156 -3.726562 18.503906 -3.601562 18.421875 -3.5 L 18.421875 -3.46875 C 17.566406 -2.320312 16.523438 -1.460938 15.296875 -0.890625 C 14.035156 -0.296875 12.640625 0 11.109375 0 C 7.992188 0 5.550781 -1.15625 3.78125 -3.46875 C 2.28125 -5.5 1.53125 -8.097656 1.53125 -11.265625 C 1.53125 -12.835938 1.726562 -14.28125 2.125 -15.59375 C 2.488281 -16.90625 3.039062 -18.054688 3.78125 -19.046875 C 4.644531 -20.210938 5.703125 -21.09375 6.953125 -21.6875 C 8.179688 -22.257812 9.566406 -22.546875 11.109375 -22.546875 C 12.640625 -22.546875 14.035156 -22.257812 15.296875 -21.6875 C 16.523438 -21.09375 17.566406 -20.210938 18.421875 -19.046875 C 18.503906 -18.941406 18.535156 -18.816406 18.515625 -18.671875 C 18.472656 -18.523438 18.394531 -18.421875 18.28125 -18.359375 L 16.09375 -17.078125 C 15.84375 -16.972656 15.632812 -17.015625 15.46875 -17.203125 C 15.125 -17.609375 14.757812 -17.9375 14.375 -18.1875 C 13.957031 -18.425781 13.554688 -18.617188 13.171875 -18.765625 C 12.773438 -18.890625 12.40625 -18.972656 12.0625 -19.015625 C 11.6875 -19.054688 11.367188 -19.078125 11.109375 -19.078125 C 10.640625 -19.078125 10.066406 -19.003906 9.390625 -18.859375 C 8.691406 -18.691406 8.023438 -18.34375 7.390625 -17.8125 C 6.734375 -17.28125 6.175781 -16.5 5.71875 -15.46875 C 5.25 -14.425781 5.015625 -13.023438 5.015625 -11.265625 C 5.015625 -9.492188 5.25 -8.097656 5.71875 -7.078125 C 6.175781 -6.046875 6.734375 -5.265625 7.390625 -4.734375 C 8.023438 -4.203125 8.691406 -3.863281 9.390625 -3.71875 C 10.066406 -3.550781 10.640625 -3.46875 11.109375 -3.46875 C 11.367188 -3.46875 11.6875 -3.488281 12.0625 -3.53125 C 12.40625 -3.570312 12.773438 -3.664062 13.171875 -3.8125 C 13.554688 -3.9375 13.957031 -4.125 14.375 -4.375 C 14.757812 -4.613281 15.125 -4.941406 15.46875 -5.359375 C 15.632812 -5.554688 15.84375 -5.585938 16.09375 -5.453125 Z M 18.28125 -4.1875 "/></g></g></g><g fill="#ffffff" fill-opacity="1"><g transform="translate(64.923859, 179.440663)"><g><path d="M 11.171875 -21.65625 C 11.171875 -21.90625 11.257812 -22.125 11.4375 -22.3125 C 11.601562 -22.46875 11.820312 -22.546875 12.09375 -22.546875 L 13.75 -22.546875 C 14 -22.546875 14.210938 -22.46875 14.390625 -22.3125 C 14.554688 -22.125 14.640625 -21.90625 14.640625 -21.65625 L 14.640625 -0.890625 C 14.640625 -0.640625 14.554688 -0.4375 14.390625 -0.28125 C 14.210938 -0.09375 14 0 13.75 0 L 12.09375 0 C 11.820312 0 11.601562 -0.09375 11.4375 -0.28125 C 11.257812 -0.4375 11.171875 -0.640625 11.171875 -0.890625 L 11.171875 -8.640625 C 11.171875 -8.890625 11.085938 -9.109375 10.921875 -9.296875 C 10.734375 -9.453125 10.519531 -9.53125 10.28125 -9.53125 L 5.90625 -9.53125 C 5.65625 -9.53125 5.453125 -9.453125 5.296875 -9.296875 C 5.109375 -9.109375 5.015625 -8.890625 5.015625 -8.640625 L 5.015625 -0.890625 C 5.015625 -0.640625 4.929688 -0.4375 4.765625 -0.28125 C 4.578125 -0.09375 4.363281 0 4.125 0 L 2.4375 0 C 2.1875 0 1.976562 -0.09375 1.8125 -0.28125 C 1.625 -0.4375 1.53125 -0.640625 1.53125 -0.890625 L 1.53125 -21.65625 C 1.53125 -21.90625 1.625 -22.125 1.8125 -22.3125 C 1.976562 -22.46875 2.1875 -22.546875 2.4375 -22.546875 L 4.125 -22.546875 C 4.363281 -22.546875 4.578125 -22.46875 4.765625 -22.3125 C 4.929688 -22.125 5.015625 -21.90625 5.015625 -21.65625 L 5.015625 -13.90625 C 5.015625 -13.65625 5.109375 -13.453125 5.296875 -13.296875 C 5.453125 -13.109375 5.65625 -13.015625 5.90625 -13.015625 L 10.28125 -13.015625 C 10.519531 -13.015625 10.734375 -13.109375 10.921875 -13.296875 C 11.085938 -13.453125 11.171875 -13.65625 11.171875 -13.90625 Z M 11.171875 -21.65625 "/></g></g></g><g fill="#ffffff" fill-opacity="1"><g transform="translate(81.103622, 179.440663)"><g><path d="M 12.609375 -19.96875 C 12.609375 -19.71875 12.53125 -19.507812 12.375 -19.34375 C 12.1875 -19.164062 11.96875 -19.078125 11.71875 -19.078125 L 5.90625 -19.078125 C 5.65625 -19.078125 5.453125 -18.992188 5.296875 -18.828125 C 5.109375 -18.640625 5.015625 -18.425781 5.015625 -18.1875 L 5.015625 -16.34375 C 5.015625 -16.09375 5.109375 -15.882812 5.296875 -15.71875 C 5.453125 -15.53125 5.65625 -15.4375 5.90625 -15.4375 L 9.75 -15.4375 C 10.019531 -15.4375 10.242188 -15.359375 10.421875 -15.203125 C 10.585938 -15.015625 10.671875 -14.796875 10.671875 -14.546875 L 10.671875 -12.890625 C 10.671875 -12.640625 10.585938 -12.425781 10.421875 -12.25 C 10.242188 -12.0625 10.019531 -11.96875 9.75 -11.96875 L 5.90625 -11.96875 C 5.65625 -11.96875 5.453125 -11.882812 5.296875 -11.71875 C 5.109375 -11.53125 5.015625 -11.316406 5.015625 -11.078125 L 5.015625 -4.375 C 5.015625 -4.125 5.109375 -3.914062 5.296875 -3.75 C 5.453125 -3.5625 5.65625 -3.46875 5.90625 -3.46875 L 11.71875 -3.46875 C 11.96875 -3.46875 12.1875 -3.390625 12.375 -3.234375 C 12.53125 -3.046875 12.609375 -2.828125 12.609375 -2.578125 L 12.609375 -0.890625 C 12.609375 -0.640625 12.53125 -0.4375 12.375 -0.28125 C 12.1875 -0.09375 11.96875 0 11.71875 0 L 2.4375 0 C 2.1875 0 1.976562 -0.09375 1.8125 -0.28125 C 1.625 -0.4375 1.53125 -0.640625 1.53125 -0.890625 L 1.53125 -21.65625 C 1.53125 -21.90625 1.625 -22.125 1.8125 -22.3125 C 1.976562 -22.46875 2.1875 -22.546875 2.4375 -22.546875 L 11.71875 -22.546875 C 11.96875 -22.546875 12.1875 -22.46875 12.375 -22.3125 C 12.53125 -22.125 12.609375 -21.90625 12.609375 -21.65625 Z M 12.609375 -19.96875 "/></g></g></g><g fill="#ffffff" fill-opacity="1"><g transform="translate(95.253228, 179.440663)"><g><path d="M 12.609375 -19.96875 C 12.609375 -19.71875 12.53125 -19.507812 12.375 -19.34375 C 12.1875 -19.164062 11.96875 -19.078125 11.71875 -19.078125 L 5.90625 -19.078125 C 5.65625 -19.078125 5.453125 -18.992188 5.296875 -18.828125 C 5.109375 -18.640625 5.015625 -18.425781 5.015625 -18.1875 L 5.015625 -16.34375 C 5.015625 -16.09375 5.109375 -15.882812 5.296875 -15.71875 C 5.453125 -15.53125 5.65625 -15.4375 5.90625 -15.4375 L 9.75 -15.4375 C 10.019531 -15.4375 10.242188 -15.359375 10.421875 -15.203125 C 10.585938 -15.015625 10.671875 -14.796875 10.671875 -14.546875 L 10.671875 -12.890625 C 10.671875 -12.640625 10.585938 -12.425781 10.421875 -12.25 C 10.242188 -12.0625 10.019531 -11.96875 9.75 -11.96875 L 5.90625 -11.96875 C 5.65625 -11.96875 5.453125 -11.882812 5.296875 -11.71875 C 5.109375 -11.53125 5.015625 -11.316406 5.015625 -11.078125 L 5.015625 -0.890625 C 5.015625 -0.640625 4.929688 -0.4375 4.765625 -0.28125 C 4.578125 -0.09375 4.363281 0 4.125 0 L 2.4375 0 C 2.1875 0 1.976562 -0.09375 1.8125 -0.28125 C 1.625 -0.4375 1.53125 -0.640625 1.53125 -0.890625 L 1.53125 -21.65625 C 1.53125 -21.90625 1.625 -22.125 1.8125 -22.3125 C 1.976562 -22.46875 2.1875 -22.546875 2.4375 -22.546875 L 11.71875 -22.546875 C 11.96875 -22.546875 12.1875 -22.46875 12.375 -22.3125 C 12.53125 -22.125 12.609375 -21.90625 12.609375 -21.65625 Z M 12.609375 -19.96875 "/></g></g></g><g fill="#ffffff" fill-opacity="1"><g transform="translate(109.402833, 179.440663)"><g/></g></g><g fill="#ffffff" fill-opacity="1"><g transform="translate(118.630838, 179.440663)"><g><path d="M 15.78125 -22.546875 C 16.070312 -22.546875 16.304688 -22.425781 16.484375 -22.1875 C 16.648438 -21.957031 16.703125 -21.695312 16.640625 -21.40625 C 16.492188 -20.875 16.394531 -20.46875 16.34375 -20.1875 C 16.257812 -19.894531 16.1875 -19.632812 16.125 -19.40625 C 16.0625 -19.1875 16 -18.953125 15.9375 -18.703125 C 15.851562 -18.441406 15.75 -18.070312 15.625 -17.59375 C 15.476562 -17.101562 15.304688 -16.457031 15.109375 -15.65625 C 14.878906 -14.851562 14.59375 -13.796875 14.25 -12.484375 C 13.894531 -11.171875 13.460938 -9.550781 12.953125 -7.625 C 12.421875 -5.695312 11.796875 -3.378906 11.078125 -0.671875 C 11.035156 -0.472656 10.929688 -0.3125 10.765625 -0.1875 C 10.597656 -0.0625 10.414062 0 10.21875 0 L 8 0 C 7.789062 0 7.601562 -0.0625 7.4375 -0.1875 C 7.28125 -0.3125 7.179688 -0.472656 7.140625 -0.671875 C 6.992188 -1.242188 6.773438 -2.054688 6.484375 -3.109375 C 6.203125 -4.128906 5.894531 -5.285156 5.5625 -6.578125 C 5.21875 -7.847656 4.859375 -9.203125 4.484375 -10.640625 C 4.097656 -12.054688 3.722656 -13.441406 3.359375 -14.796875 C 2.984375 -16.128906 2.644531 -17.378906 2.34375 -18.546875 C 2.03125 -19.703125 1.769531 -20.65625 1.5625 -21.40625 C 1.507812 -21.71875 1.5625 -21.976562 1.71875 -22.1875 C 1.90625 -22.425781 2.144531 -22.546875 2.4375 -22.546875 L 4.15625 -22.546875 C 4.601562 -22.546875 4.898438 -22.320312 5.046875 -21.875 C 5.210938 -21.28125 5.457031 -20.390625 5.78125 -19.203125 C 6.09375 -18.003906 6.429688 -16.726562 6.796875 -15.375 C 7.171875 -14.007812 7.53125 -12.671875 7.875 -11.359375 C 8.207031 -10.046875 8.484375 -8.976562 8.703125 -8.15625 C 8.765625 -7.945312 8.898438 -7.84375 9.109375 -7.84375 C 9.316406 -7.84375 9.4375 -7.945312 9.46875 -8.15625 C 9.613281 -8.707031 9.800781 -9.375 10.03125 -10.15625 C 10.238281 -10.9375 10.460938 -11.765625 10.703125 -12.640625 C 10.929688 -13.523438 11.164062 -14.429688 11.40625 -15.359375 C 11.65625 -16.253906 11.894531 -17.125 12.125 -17.96875 C 12.34375 -18.8125 12.546875 -19.570312 12.734375 -20.25 C 12.921875 -20.925781 13.066406 -21.46875 13.171875 -21.875 C 13.316406 -22.320312 13.613281 -22.546875 14.0625 -22.546875 Z M 15.78125 -22.546875 "/></g></g></g><g fill="#ffffff" fill-opacity="1"><g transform="translate(136.840769, 179.440663)"><g><path d="M 4.125 -22.546875 C 4.363281 -22.546875 4.578125 -22.46875 4.765625 -22.3125 C 4.929688 -22.125 5.015625 -21.90625 5.015625 -21.65625 L 5.015625 -0.890625 C 5.015625 -0.640625 4.929688 -0.4375 4.765625 -0.28125 C 4.578125 -0.09375 4.363281 0 4.125 0 L 2.4375 0 C 2.1875 0 1.976562 -0.09375 1.8125 -0.28125 C 1.625 -0.4375 1.53125 -0.640625 1.53125 -0.890625 L 1.53125 -21.65625 C 1.53125 -21.90625 1.625 -22.125 1.8125 -22.3125 C 1.976562 -22.46875 2.1875 -22.546875 2.4375 -22.546875 Z M 4.125 -22.546875 "/></g></g></g><g fill="#ffffff" fill-opacity="1"><g transform="translate(143.392648, 179.440663)"><g><path d="M 7.5 -22.546875 C 8.65625 -22.546875 9.648438 -22.289062 10.484375 -21.78125 C 11.328125 -21.25 12.015625 -20.5625 12.546875 -19.71875 C 13.085938 -18.875 13.46875 -17.929688 13.6875 -16.890625 C 13.914062 -15.847656 13.988281 -14.789062 13.90625 -13.71875 C 13.800781 -12.65625 13.554688 -11.640625 13.171875 -10.671875 C 12.753906 -9.710938 12.195312 -8.90625 11.5 -8.25 C 11.195312 -7.976562 11.117188 -7.660156 11.265625 -7.296875 L 13.46875 -1.203125 C 13.570312 -0.910156 13.546875 -0.644531 13.390625 -0.40625 C 13.203125 -0.132812 12.941406 0 12.609375 0 L 10.859375 0 C 10.429688 0 10.144531 -0.191406 10 -0.578125 L 8 -6.125 C 7.851562 -6.507812 7.566406 -6.703125 7.140625 -6.703125 L 5.90625 -6.703125 C 5.65625 -6.703125 5.453125 -6.617188 5.296875 -6.453125 C 5.109375 -6.273438 5.015625 -6.0625 5.015625 -5.8125 L 5.015625 -0.890625 C 5.015625 -0.640625 4.929688 -0.4375 4.765625 -0.28125 C 4.578125 -0.09375 4.363281 0 4.125 0 L 2.4375 0 C 2.1875 0 1.976562 -0.09375 1.8125 -0.28125 C 1.625 -0.4375 1.53125 -0.640625 1.53125 -0.890625 L 1.53125 -21.65625 C 1.53125 -21.90625 1.625 -22.125 1.8125 -22.3125 C 1.976562 -22.46875 2.1875 -22.546875 2.4375 -22.546875 Z M 5.015625 -11.078125 C 5.015625 -10.828125 5.109375 -10.617188 5.296875 -10.453125 C 5.453125 -10.273438 5.65625 -10.1875 5.90625 -10.1875 L 7.5625 -10.1875 C 8.195312 -10.1875 8.734375 -10.410156 9.171875 -10.859375 C 9.597656 -11.285156 9.925781 -11.828125 10.15625 -12.484375 C 10.375 -13.140625 10.484375 -13.859375 10.484375 -14.640625 C 10.484375 -15.398438 10.382812 -16.109375 10.1875 -16.765625 C 9.957031 -17.421875 9.628906 -17.972656 9.203125 -18.421875 C 8.765625 -18.859375 8.21875 -19.078125 7.5625 -19.078125 L 5.90625 -19.078125 C 5.65625 -19.078125 5.453125 -18.992188 5.296875 -18.828125 C 5.109375 -18.640625 5.015625 -18.425781 5.015625 -18.1875 Z M 5.015625 -11.078125 "/></g></g></g><g fill="#ffffff" fill-opacity="1"><g transform="translate(158.864937, 179.440663)"><g><path d="M 14.25 -19.96875 C 14.25 -19.71875 14.164062 -19.507812 14 -19.34375 C 13.8125 -19.164062 13.585938 -19.078125 13.328125 -19.078125 L 10.515625 -19.078125 C 10.273438 -19.078125 10.070312 -18.992188 9.90625 -18.828125 C 9.71875 -18.640625 9.625 -18.425781 9.625 -18.1875 L 9.625 -0.890625 C 9.625 -0.640625 9.546875 -0.4375 9.390625 -0.28125 C 9.203125 -0.09375 8.972656 0 8.703125 0 L 7.046875 0 C 6.796875 0 6.59375 -0.09375 6.4375 -0.28125 C 6.25 -0.4375 6.15625 -0.640625 6.15625 -0.890625 L 6.15625 -18.1875 C 6.15625 -18.425781 6.070312 -18.640625 5.90625 -18.828125 C 5.71875 -18.992188 5.503906 -19.078125 5.265625 -19.078125 L 2.4375 -19.078125 C 2.1875 -19.078125 1.976562 -19.164062 1.8125 -19.34375 C 1.625 -19.507812 1.53125 -19.71875 1.53125 -19.96875 L 1.53125 -21.65625 C 1.53125 -21.90625 1.625 -22.125 1.8125 -22.3125 C 1.976562 -22.46875 2.1875 -22.546875 2.4375 -22.546875 L 13.328125 -22.546875 C 13.585938 -22.546875 13.8125 -22.46875 14 -22.3125 C 14.164062 -22.125 14.25 -21.90625 14.25 -21.65625 Z M 14.25 -19.96875 "/></g></g></g><g fill="#ffffff" fill-opacity="1"><g transform="translate(174.644821, 179.440663)"><g><path d="M 13.75 -22.546875 C 14 -22.546875 14.210938 -22.46875 14.390625 -22.3125 C 14.554688 -22.125 14.640625 -21.90625 14.640625 -21.65625 L 14.640625 -6.546875 C 14.640625 -5.648438 14.476562 -4.800781 14.15625 -4 C 13.800781 -3.195312 13.328125 -2.5 12.734375 -1.90625 C 12.140625 -1.3125 11.441406 -0.847656 10.640625 -0.515625 C 9.835938 -0.171875 8.988281 0 8.09375 0 C 7.1875 0 6.34375 -0.171875 5.5625 -0.515625 C 4.769531 -0.867188 4.070312 -1.34375 3.46875 -1.9375 C 2.875 -2.53125 2.40625 -3.226562 2.0625 -4.03125 C 1.707031 -4.8125 1.53125 -5.648438 1.53125 -6.546875 L 1.53125 -21.65625 C 1.53125 -21.90625 1.625 -22.125 1.8125 -22.3125 C 1.976562 -22.46875 2.1875 -22.546875 2.4375 -22.546875 L 4.09375 -22.546875 C 4.351562 -22.546875 4.578125 -22.46875 4.765625 -22.3125 C 4.929688 -22.125 5.015625 -21.90625 5.015625 -21.65625 L 5.015625 -6.640625 C 5.015625 -6.210938 5.097656 -5.804688 5.265625 -5.421875 C 5.421875 -5.023438 5.644531 -4.6875 5.9375 -4.40625 C 6.226562 -4.113281 6.566406 -3.882812 6.953125 -3.71875 C 7.335938 -3.550781 7.75 -3.46875 8.1875 -3.46875 C 9.019531 -3.46875 9.726562 -3.757812 10.3125 -4.34375 C 10.882812 -4.914062 11.171875 -5.617188 11.171875 -6.453125 L 11.171875 -21.65625 C 11.171875 -21.90625 11.257812 -22.125 11.4375 -22.3125 C 11.625 -22.46875 11.84375 -22.546875 12.09375 -22.546875 Z M 13.75 -22.546875 "/></g></g></g><g fill="#ffffff" fill-opacity="1"><g transform="translate(190.824584, 179.440663)"><g><path d="M 14.0625 0 C 13.625 0 13.335938 -0.222656 13.203125 -0.671875 C 13.140625 -0.898438 13.054688 -1.226562 12.953125 -1.65625 C 12.828125 -2.070312 12.671875 -2.640625 12.484375 -3.359375 C 12.347656 -3.804688 12.050781 -4.03125 11.59375 -4.03125 L 6.671875 -4.03125 C 6.222656 -4.03125 5.925781 -3.804688 5.78125 -3.359375 C 5.632812 -2.796875 5.515625 -2.289062 5.421875 -1.84375 C 5.296875 -1.394531 5.179688 -1.003906 5.078125 -0.671875 C 4.929688 -0.222656 4.644531 0 4.21875 0 L 2.46875 0 C 2.175781 0 1.9375 -0.125 1.75 -0.375 C 1.570312 -0.59375 1.519531 -0.847656 1.59375 -1.140625 C 1.800781 -1.898438 2.0625 -2.863281 2.375 -4.03125 C 2.675781 -5.175781 3.015625 -6.425781 3.390625 -7.78125 C 3.753906 -9.113281 4.128906 -10.5 4.515625 -11.9375 C 4.890625 -13.351562 5.25 -14.707031 5.59375 -16 C 5.925781 -17.269531 6.234375 -18.425781 6.515625 -19.46875 C 6.785156 -20.5 7.003906 -21.300781 7.171875 -21.875 C 7.210938 -22.082031 7.3125 -22.242188 7.46875 -22.359375 C 7.632812 -22.484375 7.820312 -22.546875 8.03125 -22.546875 L 10.25 -22.546875 C 10.445312 -22.546875 10.628906 -22.484375 10.796875 -22.359375 C 10.960938 -22.242188 11.066406 -22.082031 11.109375 -21.875 C 11.828125 -19.164062 12.453125 -16.847656 12.984375 -14.921875 C 13.492188 -12.992188 13.925781 -11.375 14.28125 -10.0625 C 14.625 -8.75 14.910156 -7.691406 15.140625 -6.890625 C 15.335938 -6.085938 15.507812 -5.453125 15.65625 -4.984375 C 15.78125 -4.492188 15.882812 -4.125 15.96875 -3.875 C 16.03125 -3.601562 16.09375 -3.359375 16.15625 -3.140625 C 16.21875 -2.910156 16.289062 -2.65625 16.375 -2.375 C 16.425781 -2.082031 16.523438 -1.671875 16.671875 -1.140625 C 16.753906 -0.847656 16.703125 -0.59375 16.515625 -0.375 C 16.335938 -0.125 16.101562 0 15.8125 0 Z M 7.203125 -8.640625 C 7.117188 -8.359375 7.171875 -8.101562 7.359375 -7.875 C 7.535156 -7.625 7.769531 -7.5 8.0625 -7.5 L 10.21875 -7.5 C 10.5 -7.5 10.734375 -7.625 10.921875 -7.875 C 11.109375 -8.101562 11.160156 -8.359375 11.078125 -8.640625 C 10.910156 -9.210938 10.742188 -9.828125 10.578125 -10.484375 C 10.398438 -11.140625 10.207031 -11.835938 10 -12.578125 C 9.9375 -12.804688 9.820312 -12.984375 9.65625 -13.109375 C 9.5 -13.210938 9.328125 -13.265625 9.140625 -13.265625 C 8.953125 -13.265625 8.773438 -13.210938 8.609375 -13.109375 C 8.453125 -12.984375 8.34375 -12.804688 8.28125 -12.578125 C 8.09375 -11.921875 7.914062 -11.265625 7.75 -10.609375 C 7.5625 -9.953125 7.378906 -9.296875 7.203125 -8.640625 Z M 7.203125 -8.640625 "/></g></g></g><g fill="#ffffff" fill-opacity="1"><g transform="translate(209.096032, 179.440663)"><g><path d="M 10.921875 -3.46875 C 11.171875 -3.46875 11.382812 -3.390625 11.5625 -3.234375 C 11.726562 -3.046875 11.8125 -2.828125 11.8125 -2.578125 L 11.8125 -0.890625 C 11.8125 -0.640625 11.726562 -0.4375 11.5625 -0.28125 C 11.382812 -0.09375 11.171875 0 10.921875 0 L 2.4375 0 C 2.1875 0 1.976562 -0.09375 1.8125 -0.28125 C 1.625 -0.4375 1.53125 -0.640625 1.53125 -0.890625 L 1.53125 -21.65625 C 1.53125 -21.90625 1.625 -22.125 1.8125 -22.3125 C 1.976562 -22.46875 2.1875 -22.546875 2.4375 -22.546875 L 4.125 -22.546875 C 4.363281 -22.546875 4.578125 -22.46875 4.765625 -22.3125 C 4.929688 -22.125 5.015625 -21.90625 5.015625 -21.65625 L 5.015625 -4.375 C 5.015625 -4.125 5.109375 -3.914062 5.296875 -3.75 C 5.453125 -3.5625 5.65625 -3.46875 5.90625 -3.46875 Z M 10.921875 -3.46875 "/></g></g></g></svg>